<?xml version="1.0" encoding="UTF-8"?>
<svg id="Layer_2" data-name="Layer 2" xmlns="http://www.w3.org/2000/svg" viewBox="0 0 142.35 145.6">
  <g id="Layer_1-2" data-name="Layer 1">
    <g>
      <path d="M135.27,50.97l-48.99-.11-15.09-46.55-15.19,46.55-48.89.03,35.3,25.68c1.04.78,1.95,1.22,3.2,1.89l-28.18,39.02c-23.43-26.78-23.23-66.9.54-93.59C38.56.77,71.77-6.51,100.22,6.21c27.49,12.3,44.66,40.9,41.83,71.32-3.27,35.11-32.15,62.86-67.6,64.4-13.22.57-26.11-2.32-37.69-8.76l-34.08,12.43,68.04-48.84,39.95,28.97-14.92-46.26c-.37-1.16,1.18-1.08,1.7-1.45l37.83-27.06Z"/>
      <path d="M36.51,108.66l21.44-30.29c.47-.66,1.37-.87,1.38-1.89l-21.09-15.46,25.02-.14,7.9-23.91,7.91,23.89,24.81.22-23.88,16.92-43.49,30.66Z"/>
    </g>
  </g>
</svg>