<?xml version="1.0" encoding="UTF-8"?>
<svg id="Layer_2" data-name="Layer 2" xmlns="http://www.w3.org/2000/svg" viewBox="0 0 225.19 103.93">
  <defs>
    <style>
      .cls-1 {
        fill: #fff;
      }
    </style>
  </defs>
  <g id="Layer_1-2" data-name="Layer 1">
    <path class="cls-1" d="M222.53,13.28c-2.21,0-7.15,4.84-7.15,7.19,0,1.76,2.77,2.97,3.69,2.97,1.42,0,6.13-2.97,6.13-7.03,0-1.49-1.08-3.13-2.66-3.13ZM216.45,25.03c-1.59,0-6.93,2.53-13.63,9.56-6.7,7.03-14.76,16.48-22.03,16.48-2.68,0-3.51-1.65-3.51-3.3,0-1.2.98-2.33,2.84-2.86,6.86-1.96,17.61-10.6,17.61-16.48,0-1.54-.8-3.19-2.85-3.19-2.97,0-11.24,1.33-21.55,13.26-1.15,1.34-2.4,2.24-3.32,2.24-.96,0-2.1-1.76-2.1-5.27,0-.38.02-.73.04-1.07.32-4.65,2.68-6.55,2.68-8.08,0-1.04-.45-1.47-1.71-1.47-2.89,0-8.56,6.71-9.58,6.71-.83,0-1.79-3.07-2.72-4.29-1.36-1.76-3.24-2.2-8.58-2.2-2.67,0-4.2.22-6.58.22-2.72,0-3.35-.11-3.86-1.26-.51-1.15-8.46-21.43-26.57-21.43-4.03,0-8.29,1.7-8.29,6.98s3.27,12.49,16.97,16.92c.34.11.68.15.68.43,0,.57-6.47,9.03-12.33,10.01-.66.11-1.13-.44-1.13-1.04s.9-2.37.9-5.05-.85-6.49-6.13-6.49-10.94,2.36-25.7,16.13c-.53.49-1.06.99-1.61,1.51-.53.51-1.86,1.6-3.27,2.46-1.18.7-2.41,1.24-3.31,1.12-.28-.04-.45-.29.17-1.16.09-.11.28-.37.55-.74.65-.87,1.77-2.37,3.06-4.08,2.93-3.9,6.73-8.89,7.75-10.01,1.65-1.81,2.49-2.7,2.49-3.3,0-.7-1.01-1.27-2.27-1.27-1.07,0-5.51.72-8.91,3.9-1.23,1.15-4.57,4.53-8.72,8.37-1.1,1.02-2.26,2.08-3.44,3.13-6.75,6-14.53,12.02-18.78,12.02-1.71,0-3.3-1.11-3.3-3.74,0-1.74,2.38-7.41,7.08-13.82.6-.81,1.24-1.64,1.9-2.47,2.05-2.53,4.45-5.11,7.19-7.56,10.73-9.56,23.16-14.23,30.88-14.23,3.24,0,7.11.62,7.68.69.4.06.53-.02.7-.29.23-.38,6.02-10.34,6.02-10.34.1-.14.04-.27-.1-.31-.14-.05-1.16-.39-3.26-.39-8.66,0-27.55,4.15-46.54,17.53-5.32,3.74-9.81,7.46-13.52,11.06-.61.6-1.2,1.19-1.78,1.77-8.32,8.56-12.17,16.32-12.17,21.85,0,7.04,6.8,7.92,10.35,7.92,9.39,0,13.56-4.19,15.41-4.19s-1.11,4.27-3.9,5.96C19.12,75.51,0,87.23,0,98.08c0,4.91,4.68,5.23,8.24,5.23s20.97-2.16,47.62-42.14c1.25-1.88,3.31-2.96,5.28-4.34,1.97-1.38,8.32-5.87,9.58-5.87,1.26,0,1.21.52,1.16,1.07-.07.79-.92,2.53-.92,4.65s2.23,4.59,5.86,4.59c8.09,0,14-5.58,18.85-10.62,2.75-2.86,5.15-5.53,7.43-6.92,1.02-.63,2.02-1,3.01-1,.84,0,1.15.36,1.15.87,0,.04,0,.13-.04.25-.23,1.17-1.51,5.55-1.58,8.61,0,.09,0,.17,0,.25,0,3.37,1.16,8.2,9.26,8.2,4.49,0,8.59-2.33,12.09-5.73,3.79-3.66,6.87-8.56,8.98-13.08,2.02-4.33,3.15-8.31,3.15-10.51,0-.48.16-1.05,1.07-1.05s3.43.26,4.54.37c1.22.12,2.81,1.07,2.81,3.27,0,1.39-.95,3.69-2.36,6.38-2.53,4.8-6.56,10.83-9.45,15.09-1.05,1.56-1.96,2.87-2.58,3.81,0,0-.76.88.38.88h10.59c.46,0,.91-.36,1.29-.88.13-.18,1.21-1.78,2.6-3.83,2.66-3.96,6.44-9.57,6.64-9.86.3-.44.75-.73,1.2-.73,1.67,0-.37,4.1,5.83,4.1,1.74,0,3.47-.86,3.93-.86s.51.38.51.71c0,.65-.85,2.17-.99,4.28-.01.28-.03.61-.03.95-.02,2.82.7,7.35,5.66,7.35,9.78,0,21.95-12,22.54-12.09.4-.06.47.1.47.48,0,.43-1.38,5.18-15.68,21.99-14.31,16.82-21.24,23.41-21.24,27.03s3.18,4.94,4.65,4.94,7.72-.33,22.6-23.73c10.62-16.71,15.63-27.02,21.26-35.32,2.27-3.33,5.57-7.74,7.92-9.96,4.43-4.17,5.56-6.37,5.56-7.36,0-1.28-.8-2.53-2.38-2.53ZM190.02,31.66c.31,0,.76.24.76.6,0,2.48-6.68,8.34-8.81,8.34-.44,0-.87-.3-.87-.78,0-1.93,6.69-8.16,8.93-8.16ZM13.5,95.77c-1.6,0-2.33-.85-2.33-2.31,0-4.81,17.28-17.44,19.33-17.46.53,0,.67.19.67.6.02,3.86-12.6,19.17-17.67,19.17ZM97.57,36.9c-2.04,1.43-2.7,1.87-2.5,3.08.11.66,1.1.84,1.22,2,.03.33-.11.78-.39,1.3-.92,1.73-3.33,4.26-5.69,6.19-1.92,1.58-3.81,2.77-4.81,2.79-1.85.04-2.43-.98-2.5-1.9-.07-.75.11-1.61.47-2.53.67-1.7,1.99-3.61,3.61-5.52,4.6-5.4,11.63-10.71,13.4-10.75,1.1-.03,1.56.43,1.59.89.17,1.9-2.65,3.23-4.41,4.45ZM111.82,12.07c0-2.33,1.64-3.68,3.95-3.68,10.98,0,16.44,15.1,16.44,16.06,0,.48-.29.75-1.08.75-4.01,0-19.31-5.77-19.31-13.13ZM129.67,42.9c-2.55,4.5-6.17,8.62-10.54,8.63-1.35,0-2.22-.7-2.27-1.96-.04-1.52,1.02-3.72,2.46-5.89,2.11-3.19,5.03-6.32,6.43-7.13,2.34-1.37,3.63-2.72,3.6-3.49-.03-.77-1.69-1.81-1.87-2.57-.19-.88.54-1.35,2.17-.95,2.34.57,4.03.64,4.08,2.31.05,1.35-1.44,6.41-4.07,11.05Z"/>
  </g>
</svg>