<?xml version="1.0" encoding="UTF-8"?>
<svg id="Layer_2" data-name="Layer 2" xmlns="http://www.w3.org/2000/svg" viewBox="0 0 252.77 86.21">
  <defs>
    <style>
      .cls-1 {
        fill: #fff;
      }
    </style>
  </defs>
  <g id="Layer_1-2" data-name="Layer 1">
    <g>
      <path class="cls-1" d="M0,11.17h2.12c4.81,0,8.72,3.76,8.72,8.4v47.31c0,4.64-3.91,8.4-8.72,8.4H0v10.93h55.32v-10.93h-2.12c-4.81,0-8.72-3.76-8.72-8.4V19.57c0-4.64,3.91-8.4,8.72-8.4h2.12V.25H0v10.92Z"/>
      <path class="cls-1" d="M105.77,66.89l-.02-66.64h-44.45v10.92h2.12c4.81,0,8.72,3.76,8.72,8.4v47.31c0,4.64-3.91,8.4-8.72,8.4h-2.12v10.93h55.32v-10.93h-2.12c-4.81,0-8.72-3.76-8.72-8.4Z"/>
      <path class="cls-1" d="M151.27,11.17h2.12c4.82,0,8.72,3.76,8.72,8.4v47.31c0,4.64-3.91,8.4-8.72,8.4h-2.12v10.93h44.22l.24-85.96h-44.45v10.92Z"/>
      <path class="cls-1" d="M110.44,11.17h15.75c4.81,0,8.72,3.76,8.72,8.4v14.32h10.7V.25h-35.17v10.92Z"/>
      <path class="cls-1" d="M116.56,29.29c0,4.64.62,8.4-7.27,8.4v9.02c7.89,0,7.27,3.76,7.27,8.4v4.3h10.6V24.99h-10.6v4.3Z"/>
      <path class="cls-1" d="M235.27,42.45c8.02-3.61,13.83-11.26,13.83-20.12,0-12.33-11.24-22.32-24.04-22.32h-24.9v11.63h.19c7.35,0,15.97,2.73,15.83,12.82-.12,9.42-8.48,12.82-15.83,12.82v10.04c8.3,0,18.18,2.56,17.68,14.48-.43,10.39-9.38,12.64-17.68,12.64h-.19v11.75h28.56c12.8,0,24.04-10,24.04-22.32,0-10.16-7.64-18.74-17.5-21.43h0Z"/>
    </g>
  </g>
</svg>