<?xml version="1.0" encoding="UTF-8"?>
<svg id="Layer_2" data-name="Layer 2" xmlns="http://www.w3.org/2000/svg" viewBox="0 0 222.99 99">
  <defs>
    <style>
      .cls-1 {
        fill: #231f20;
      }

      .cls-2 {
        fill: #fff;
      }
    </style>
  </defs>
  <g id="Layer_1-2" data-name="Layer 1">
    <g>
      <path class="cls-2" d="M134.88,68.78h30.4v12.47h-45.07V17.24h14.67v51.55Z"/>
      <path class="cls-2" d="M197.54,56.85h11.95v11.2c-2.19.84-6.49,1.69-10.58,1.69-13.21,0-17.6-6.76-17.6-20.49s4.18-20.81,17.38-20.81c7.36,0,11.53,2.33,14.99,6.76l9.13-8.45c-5.57-8.01-15.3-10.44-24.44-10.44-20.54,0-31.33,11.28-31.33,32.83s9.76,33.07,31.22,33.07c9.86,0,19.49-2.53,24.74-6.24v-31.06h-25.46v11.94Z"/>
      <path class="cls-2" d="M83.83,84.51c19.18-19.33,19.18-50.67,0-70.01-19.18-19.33-50.27-19.33-69.45,0-19.18,19.33-19.18,50.67,0,70.01,19.18,19.33,50.27,19.33,69.45,0Z"/>
      <path class="cls-1" d="M61.12,66.61h-10.04V28.6h-3.71v41.76h3.72v-.03h10.04v-3.73Z"/>
      <path class="cls-1" d="M86.15,51.07h-24.97v-3.73h28.63c.04.72.06,1.44.06,2.18,0,22.45-18.15,40.65-40.54,40.65S8.78,71.98,8.78,49.52,26.93,8.87,49.32,8.87c.59,0,1.18.01,1.76.04v3.7c-.59-.03-1.17-.04-1.76-.04-20.35,0-36.85,16.55-36.85,36.95s16.5,36.96,36.85,36.96,35.96-15.66,36.82-35.29v-.1Z"/>
      <path class="cls-1" d="M34.21,39.85c1.12,0,2.21-.35,3.14-.98.93-.63,1.65-1.53,2.08-2.57.42-1.04.53-2.19.31-3.3-.22-1.11-.76-2.12-1.56-2.92-.79-.8-1.8-1.34-2.9-1.56-1.1-.22-2.24-.1-3.27.33-1.03.43-1.92,1.17-2.54,2.1-.62.94-.95,2.04-.95,3.17,0,.75.15,1.5.44,2.19.29.69.71,1.32,1.24,1.85.53.53,1.16.95,1.85,1.24.69.29,1.43.43,2.18.43Z"/>
    </g>
  </g>
</svg>