<?xml version="1.0" encoding="UTF-8"?>
<svg id="Layer_2" data-name="Layer 2" xmlns="http://www.w3.org/2000/svg" viewBox="0 0 206.89 31.83">
  <defs>
    <style>
      .cls-1 {
        fill: #fff;
      }
    </style>
  </defs>
  <g id="Layer_1-2" data-name="Layer 1">
    <path class="cls-1" d="M0,23.18v-2.27h7.95v2.88c-.02,1.47,1.14,2.67,2.61,2.7.12,0,.24,0,.36-.02,1.33.18,2.58-.69,2.87-2,.21-.73.19-1.5-.05-2.21-1.54-3.87-12.05-5.62-13.38-11.65-.27-1.32-.29-2.69-.05-4.02C1.13,1.75,5.38,0,10.66,0c4.2,0,10,.98,10,7.47v2.11h-7.38v-1.85c.09-1.4-.98-2.6-2.38-2.69-.13,0-.26,0-.39,0-1.29-.14-2.47.73-2.72,2.01-.08.51-.07,1.04.05,1.55.87,3.45,12.1,5.31,13.33,11.54.31,1.62.32,3.27.05,4.89-.72,4.94-5.13,6.8-10.46,6.8-5.59,0-10.77-2.01-10.77-8.65ZM96.27,23.08v-2.27h7.84v2.83c-.05,1.44,1.08,2.65,2.52,2.69.13,0,.26,0,.39-.02,1.32.2,2.57-.66,2.87-1.96.21-.71.2-1.47-.05-2.16-1.49-3.81-11.89-5.57-13.23-11.59-.27-1.31-.29-2.65-.05-3.97.83-4.79,5.08-6.54,10.26-6.54,4.15,0,9.89,1.03,9.89,7.42v2.06h-7.33v-1.8c.09-1.39-.96-2.59-2.35-2.68-.12,0-.24,0-.36,0-1.27-.17-2.45.7-2.67,1.96-.08.51-.07,1.04.05,1.55.82,3.45,11.94,5.25,13.18,11.43.31,1.6.32,3.24.05,4.84-.72,4.95-5.07,6.75-10.34,6.75-5.54,0-10.67-2.01-10.67-8.55h0ZM124.36,24.16c-.07-.65-.09-1.31-.05-1.96V.88h7.48v21.99c0,.38,0,.76.05,1.13.42,1.56,2.02,2.48,3.58,2.06,1-.27,1.79-1.06,2.06-2.06.04-.38.06-.76.05-1.13V.88h7.49v21.32c0,.57-.05,1.65-.05,1.96-.51,5.57-4.87,7.36-10.3,7.36s-9.8-1.8-10.31-7.36h0ZM185.98,23.85c-.08-.65-.11-1.31-.1-1.97v-12.51c0-.52.05-1.44.1-1.96.67-5.56,5.13-7.31,10.41-7.31s9.84,1.75,10.36,7.31c.06.65.08,1.31.05,1.96v.97h-7.48v-1.64c0-.38-.03-.76-.1-1.13-.51-1.63-2.24-2.53-3.87-2.02-.97.3-1.72,1.06-2.02,2.02-.09.46-.12.93-.1,1.39v13.6c0,.38,0,.76.05,1.13.37,1.39,1.69,2.31,3.13,2.17,1.41.15,2.71-.78,3.02-2.16.07-.37.09-.76.05-1.13v-4.33h-3.02v-4.33h10.46v7.98c0,.65-.03,1.31-.1,1.96-.51,5.41-5.17,7.31-10.41,7.31s-9.89-1.9-10.4-7.31h0ZM81.66,30.59l-.2-27.5-5.13,27.5h-7.48l-5.08-27.5-.2,27.5h-7.39l.61-29.67h12.05l3.74,23.18,3.74-23.18h12.05l.67,29.67h-7.38ZM42.29,30.59l-4-27.5-4.1,27.5h-8L31.63.93h13.18l5.43,29.67h-7.95ZM167.58,30.28l-7.43-24.67.41,24.67h-7.28V.93h10.97l6.96,23.9-.4-23.9h7.33v29.36h-10.56Z"/>
  </g>
</svg>