<?xml version="1.0" encoding="UTF-8"?>
<svg id="Layer_2" data-name="Layer 2" xmlns="http://www.w3.org/2000/svg" viewBox="0 0 389.87 75.66">
  <defs>
    <style>
      .cls-1 {
        fill: #fff;
      }
    </style>
  </defs>
  <g id="Layer_1-2" data-name="Layer 1">
    <g>
      <path class="cls-1" d="M355.46.41c-16.27,4.13-24.67,12.93-24.67,25.73,0,9.47,7.47,16.4,21.07,19.6,4.93,1.2,8.27,4.4,8.27,7.87s-2.27,5.73-8,7.33c-6,1.73-10.27-.27-11.73-5.6l-1.07-4.4-10.4-.4-10.53-.4.93,5.73c1.33,8.4,4.8,13.33,11.47,16.8,5.07,2.67,7.47,3.07,16.13,2.53,15.73-.8,28-8.13,33.2-19.87,5.07-11.6-2.4-22.8-17.33-25.73-9.73-2-13.73-8.13-8.53-13.2,4.27-4.4,15.2-1.2,15.2,4.27,0,1.07,3.33,1.6,10.13,1.6h10.27l-.67-5.87c-.8-6.4-3.47-10-10.13-13.33-4.4-2.27-18.8-3.87-23.6-2.67Z"/>
      <path class="cls-1" d="M96,2.81c-17.47,6.27-32.4,25.73-34.13,44.67-.93,10.13,1.2,16.13,7.6,22,15.73,14.13,48.13,2.8,60.93-21.47,10.27-19.2,7.73-37.33-6.27-44.4C118,.41,103.6,0,96,2.81ZM113.33,21.74c3.47,4.4,3.47,9.2.13,18.27-2.67,7.07-8.4,13.73-14.53,16.93-4.4,2.27-11.73.53-14.27-3.47-5.07-7.73,2.27-27.87,12.13-33.6,1.47-.8,5.2-1.6,8.27-1.6,4.4,0,6.13.67,8.27,3.47Z"/>
      <path class="cls-1" d="M4.93,9.21c-.4,3.87-1.33,17.2-2.13,29.73-.8,12.4-1.6,25.47-2,28.93l-.8,6.4h25.07l18.4-29.07c10.13-15.87,20.4-32.13,22.93-36l4.4-6.93h-10.67c-9.6,0-10.67.27-12.13,2.93-4,8-23.2,38.13-23.87,37.73-.4-.27-.27-5.47.13-11.6.53-6.13,1.07-15.07,1.07-20.13l.13-8.93H5.6l-.67,6.93Z"/>
      <path class="cls-1" d="M158.93,5.21c-7.6,20.13-24,66.93-24.13,68.67,0,.27,11.87.4,26.4.4h26.4l2.53-7.07c1.33-3.73,2.67-7.73,3.07-8.67.4-1.2-2.93-1.6-14.27-1.6-10.67,0-14.8-.4-14.8-1.6,0-.93,3.87-12.8,8.67-26.53,4.8-13.87,8.67-25.33,8.67-25.73s-4.8-.8-10.67-.8c-9.87,0-10.8.27-11.87,2.93Z"/>
      <path class="cls-1" d="M202.93,9.61c-1.6,4.13-2.8,8-2.8,8.67,0,.8,4.13,1.33,9.07,1.33s9.47.27,9.87.67-2.27,8.67-5.73,18.13c-3.6,9.6-8,21.6-9.87,26.67l-3.33,9.2h22.13l9.07-25.73c4.93-14,9.2-26.4,9.6-27.33.27-1.07,3.6-1.6,10.53-1.6,5.47,0,10-.13,10-.4s1.47-4.13,3.2-8.67l3.33-8.27h-62.4l-2.67,7.33Z"/>
      <path class="cls-1" d="M278.13,15.21c-8,10.93-32.27,43.87-40.8,55.33l-2.67,3.73h21.2l5.47-8.4c5.87-9.07,20.4-30.27,25.07-36.4l2.93-3.87-.67,20c-.4,10.93-.93,22-1.2,24.27l-.53,4.4h21.2V2.28h-10.27l-10.4.13-9.33,12.8Z"/>
    </g>
  </g>
</svg>