<?xml version="1.0" encoding="UTF-8"?>
<svg id="Layer_2" data-name="Layer 2" xmlns="http://www.w3.org/2000/svg" viewBox="0 0 236.01 71.52">
  <defs>
    <style>
      .cls-1 {
        stroke-miterlimit: 3;
        stroke-width: .97px;
      }

      .cls-1, .cls-2 {
        stroke: #010101;
      }

      .cls-1, .cls-2, .cls-3 {
        fill: #fff;
      }

      .cls-2 {
        stroke-linejoin: round;
        stroke-width: .22px;
      }
    </style>
  </defs>
  <g id="Layer_1-2" data-name="Layer 1">
    <g id="Whirlpool_logo" data-name="Whirlpool logo">
      <g id="_2017_1-colorBlk" data-name=" 2017 1-colorBlk">
        <path id="Path_969" data-name="Path 969" class="cls-3" d="M50.64,7.74l-11.04,40.35h-6.42l-7.8-29.3-7.92,29.3h-6.42L0,7.74h6.36l7.86,29.31,7.92-29.31h6.3l7.98,29.31,7.86-29.31h6.36Z"/>
        <path id="Path_970" data-name="Path 970" class="cls-3" d="M53.58,7.86l6.36-.52v9.88l-.12,3.7h.23c2.61-1.06,5.39-1.6,8.21-1.61,5.15,0,8.61,2.31,8.61,11.16v17.62h-6.36v-17.11c0-5.31-2.6-6.01-5.55-6.01-1.71.04-3.4.34-5.03.87v22.25h-6.36V7.86Z"/>
        <path id="Path_971" data-name="Path 971" class="cls-3" d="M85.61,8.26c3.29,0,3.82,1.91,3.82,4.05s-.69,4.1-3.82,4.1-3.76-1.97-3.76-4.1.58-4.05,3.76-4.05ZM82.43,19.71h6.35v28.38h-6.35v-28.38Z"/>
        <path id="Path_972" data-name="Path 972" class="cls-3" d="M94.16,19.71h4.34l.87,2.3h.4c2.19-1.81,4.96-2.77,7.8-2.72.44,0,.89.01,1.33.06v6.24c-1.18-.2-2.38-.32-3.58-.35-1.67.02-3.3.41-4.8,1.16v21.69h-6.37v-28.38Z"/>
        <path id="Path_973" data-name="Path 973" class="cls-3" d="M111.62,48.09V7.86l6.36-.52v40.75h-6.36Z"/>
        <path id="Path_974" data-name="Path 974" class="cls-3" d="M163.18,19.3c9.02,0,12.49,5.31,12.49,14.74,0,8.84-3.24,14.63-12.6,14.63s-12.66-5.78-12.66-14.63c0-9.42,3.76-14.74,12.78-14.74ZM169.19,34.04c0-5.37-.87-9.77-5.95-9.77s-6.42,4.22-6.42,9.77c0,5.14,1.04,9.6,6.13,9.6s6.25-4.22,6.25-9.6h0Z"/>
        <path id="Path_975" data-name="Path 975" class="cls-3" d="M191.7,19.3c9.02,0,12.49,5.31,12.49,14.74,0,8.84-3.24,14.63-12.6,14.63s-12.66-5.78-12.66-14.63c-.01-9.42,3.74-14.74,12.78-14.74ZM197.72,34.04c0-5.37-.87-9.77-5.95-9.77s-6.42,4.22-6.42,9.77c0,5.14,1.04,9.6,6.13,9.6s6.23-4.22,6.23-9.6h0Z"/>
        <path id="Path_976" data-name="Path 976" class="cls-3" d="M208.3,48.09V7.86l6.36-.52v40.76h-6.36Z"/>
        <path id="Path_977" data-name="Path 977" class="cls-3" d="M123.18,19.71h4.8l.52,2.08c2.65-1.47,5.59-2.32,8.61-2.48,5.78,0,10,4.22,10,14.34s-4.45,14.86-11.85,14.86c-1.92-.04-3.84-.23-5.73-.58v13l-6.36.69V19.71ZM129.54,42.83c1.79.06,2.77.11,4.62.11,3.94,0,6.53-2.08,6.53-10.35,0-5.67-2.31-7.16-6.47-7.16-1.59,0-3.18.28-4.68.81v16.59Z"/>
        <path id="Path_978" data-name="Path 978" class="cls-3" d="M154.66,2.27c-4.76-5.51-19.85-.66-36.68,10.99v2.94c14.83-10.54,27.9-15.41,31.65-11.07,4.68,5.42-6.95,23.13-25.98,39.56s-38.24,25.31-42.92,19.9c-2.43-2.81-.45-8.95,4.68-16.48h-2.98c-6.34,9.46-8.71,17.41-5.46,21.17,5.93,6.88,28.14-2.53,49.58-21.04S160.6,9.15,154.66,2.27Z"/>
      </g>
      <g>
        <circle class="cls-1" cx="227.62" cy="9.14" r="7.91"/>
        <path class="cls-2" d="M223.79,13.6V4.67h4.08c2.17,0,3.32,1.02,3.32,2.55,0,1.15-.64,1.91-1.66,2.3v.13c.64.26,1.15.77,1.53,1.53l1.02,2.42h-1.91l-1.4-2.93c-.38-.77-.89-1.15-1.53-1.15h-1.4v4.08h-2.04ZM225.83,8.88h2.3c1.15,0,1.79-.51,1.79-1.53s-.64-1.4-1.79-1.4h-2.3v2.93Z"/>
      </g>
    </g>
  </g>
</svg>